<mxfile host="Electron" agent="Mozilla/5.0 (Windows NT 10.0; Win64; x64) AppleWebKit/537.36 (KHTML, like Gecko) draw.io/21.1.2 Chrome/106.0.5249.199 Electron/21.4.3 Safari/537.36" modified="2024-12-05T13:03:40.460Z" etag="50ptJdT8GvkYskIHP28T" version="21.1.2" type="device">
  <diagram name="Side-1" id="6wTsFMNNPbe6nISa02s1">
    <mxGraphModel dx="1182" dy="683" grid="1" gridSize="10" guides="1" tooltips="1" connect="1" arrows="1" fold="1" page="1" pageScale="1" pageWidth="1169" pageHeight="827" math="0" shadow="0">
      <root>
        <mxCell id="0" />
        <mxCell id="1" parent="0" />
        <mxCell id="tskBs5ETs7ypViL5f1gM-10" value="" style="edgeStyle=orthogonalEdgeStyle;rounded=0;orthogonalLoop=1;jettySize=auto;html=1;strokeWidth=2;" parent="1" source="tskBs5ETs7ypViL5f1gM-1" target="tskBs5ETs7ypViL5f1gM-2" edge="1">
          <mxGeometry relative="1" as="geometry" />
        </mxCell>
        <mxCell id="tskBs5ETs7ypViL5f1gM-43" value="Sample&lt;div&gt;IN&lt;/div&gt;" style="edgeLabel;html=1;align=center;verticalAlign=middle;resizable=0;points=[];" parent="tskBs5ETs7ypViL5f1gM-10" vertex="1" connectable="0">
          <mxGeometry x="0.1373" relative="1" as="geometry">
            <mxPoint x="-29" as="offset" />
          </mxGeometry>
        </mxCell>
        <mxCell id="tskBs5ETs7ypViL5f1gM-1" value="ADC" style="rounded=0;whiteSpace=wrap;html=1;" parent="1" vertex="1">
          <mxGeometry x="230" y="504.00000000000006" width="120" height="60" as="geometry" />
        </mxCell>
        <mxCell id="tskBs5ETs7ypViL5f1gM-2" value="Time Calculation&lt;div&gt;ToF&lt;/div&gt;" style="rounded=0;whiteSpace=wrap;html=1;" parent="1" vertex="1">
          <mxGeometry x="437" y="504" width="153" height="60" as="geometry" />
        </mxCell>
        <mxCell id="tskBs5ETs7ypViL5f1gM-3" value="&lt;div&gt;Reference&lt;/div&gt;Sample" style="rounded=0;whiteSpace=wrap;html=1;" parent="1" vertex="1">
          <mxGeometry x="437" y="420.00000000000006" width="90" height="40" as="geometry" />
        </mxCell>
        <mxCell id="tskBs5ETs7ypViL5f1gM-4" value="Radio&lt;div&gt;Interface&lt;/div&gt;" style="rounded=0;whiteSpace=wrap;html=1;" parent="1" vertex="1">
          <mxGeometry x="230" y="354" width="120" height="60" as="geometry" />
        </mxCell>
        <mxCell id="tskBs5ETs7ypViL5f1gM-23" style="edgeStyle=orthogonalEdgeStyle;rounded=0;orthogonalLoop=1;jettySize=auto;html=1;entryX=0.5;entryY=1;entryDx=0;entryDy=0;strokeWidth=3;" parent="1" source="tskBs5ETs7ypViL5f1gM-5" target="tskBs5ETs7ypViL5f1gM-52" edge="1">
          <mxGeometry relative="1" as="geometry">
            <mxPoint x="530" y="175" as="targetPoint" />
          </mxGeometry>
        </mxCell>
        <mxCell id="tskBs5ETs7ypViL5f1gM-36" value="Satellite&lt;div&gt;Positions&lt;/div&gt;&lt;div&gt;[x,y,z]&lt;/div&gt;" style="edgeLabel;html=1;align=center;verticalAlign=middle;resizable=0;points=[];" parent="tskBs5ETs7ypViL5f1gM-23" vertex="1" connectable="0">
          <mxGeometry x="0.0539" y="1" relative="1" as="geometry">
            <mxPoint x="11" y="1" as="offset" />
          </mxGeometry>
        </mxCell>
        <mxCell id="tskBs5ETs7ypViL5f1gM-5" value="LUT&lt;div&gt;Satellite positions&lt;/div&gt;" style="rounded=0;whiteSpace=wrap;html=1;" parent="1" vertex="1">
          <mxGeometry x="320" y="145" width="100" height="50" as="geometry" />
        </mxCell>
        <mxCell id="tskBs5ETs7ypViL5f1gM-24" style="edgeStyle=orthogonalEdgeStyle;rounded=0;orthogonalLoop=1;jettySize=auto;html=1;entryX=0.5;entryY=0;entryDx=0;entryDy=0;strokeWidth=3;exitX=0.5;exitY=0;exitDx=0;exitDy=0;" parent="1" source="tskBs5ETs7ypViL5f1gM-52" target="tskBs5ETs7ypViL5f1gM-7" edge="1">
          <mxGeometry relative="1" as="geometry">
            <mxPoint x="625" y="175" as="sourcePoint" />
          </mxGeometry>
        </mxCell>
        <mxCell id="tskBs5ETs7ypViL5f1gM-25" value="Sat. pos.&lt;div&gt;[x,y,z]&lt;/div&gt;" style="edgeLabel;html=1;align=center;verticalAlign=middle;resizable=0;points=[];" parent="tskBs5ETs7ypViL5f1gM-24" vertex="1" connectable="0">
          <mxGeometry x="0.0975" y="2" relative="1" as="geometry">
            <mxPoint as="offset" />
          </mxGeometry>
        </mxCell>
        <mxCell id="tskBs5ETs7ypViL5f1gM-7" value="Position&lt;div&gt;Estimation&lt;/div&gt;&lt;div&gt;Algorithm&lt;/div&gt;" style="rounded=0;whiteSpace=wrap;html=1;" parent="1" vertex="1">
          <mxGeometry x="700" y="200" width="120" height="60" as="geometry" />
        </mxCell>
        <mxCell id="tskBs5ETs7ypViL5f1gM-34" style="edgeStyle=orthogonalEdgeStyle;rounded=0;orthogonalLoop=1;jettySize=auto;html=1;entryX=0.5;entryY=0;entryDx=0;entryDy=0;strokeWidth=3;" parent="1" source="tskBs5ETs7ypViL5f1gM-8" target="tskBs5ETs7ypViL5f1gM-9" edge="1">
          <mxGeometry relative="1" as="geometry" />
        </mxCell>
        <mxCell id="tskBs5ETs7ypViL5f1gM-35" value="Updated&lt;div&gt;Position&lt;/div&gt;&lt;div&gt;[x,y,z]&lt;/div&gt;" style="edgeLabel;html=1;align=center;verticalAlign=middle;resizable=0;points=[];" parent="tskBs5ETs7ypViL5f1gM-34" vertex="1" connectable="0">
          <mxGeometry x="-0.236" y="-1" relative="1" as="geometry">
            <mxPoint as="offset" />
          </mxGeometry>
        </mxCell>
        <mxCell id="tskBs5ETs7ypViL5f1gM-8" value="Last Estimated&lt;div&gt;Position&lt;/div&gt;" style="rounded=0;whiteSpace=wrap;html=1;" parent="1" vertex="1">
          <mxGeometry x="700" y="344.41999999999996" width="120" height="60" as="geometry" />
        </mxCell>
        <mxCell id="tskBs5ETs7ypViL5f1gM-9" value="User Interface" style="rounded=0;whiteSpace=wrap;html=1;" parent="1" vertex="1">
          <mxGeometry x="700" y="504" width="120" height="60" as="geometry" />
        </mxCell>
        <mxCell id="tskBs5ETs7ypViL5f1gM-12" style="edgeStyle=orthogonalEdgeStyle;rounded=0;orthogonalLoop=1;jettySize=auto;html=1;entryX=0.806;entryY=0.017;entryDx=0;entryDy=0;entryPerimeter=0;" parent="1" source="tskBs5ETs7ypViL5f1gM-4" target="tskBs5ETs7ypViL5f1gM-2" edge="1">
          <mxGeometry relative="1" as="geometry">
            <Array as="points">
              <mxPoint x="560" y="384" />
            </Array>
          </mxGeometry>
        </mxCell>
        <mxCell id="tskBs5ETs7ypViL5f1gM-42" value="Start&lt;div&gt;Time&lt;/div&gt;" style="edgeLabel;html=1;align=center;verticalAlign=middle;resizable=0;points=[];" parent="tskBs5ETs7ypViL5f1gM-12" vertex="1" connectable="0">
          <mxGeometry x="0.0493" y="1" relative="1" as="geometry">
            <mxPoint x="-104" y="1" as="offset" />
          </mxGeometry>
        </mxCell>
        <mxCell id="tskBs5ETs7ypViL5f1gM-14" value="" style="endArrow=classic;html=1;rounded=0;entryX=0;entryY=0.25;entryDx=0;entryDy=0;" parent="1" target="tskBs5ETs7ypViL5f1gM-7" edge="1">
          <mxGeometry width="50" height="50" relative="1" as="geometry">
            <mxPoint x="590" y="520" as="sourcePoint" />
            <mxPoint x="680" y="300" as="targetPoint" />
            <Array as="points">
              <mxPoint x="610" y="520" />
              <mxPoint x="610" y="215" />
            </Array>
          </mxGeometry>
        </mxCell>
        <mxCell id="tskBs5ETs7ypViL5f1gM-15" value="ToF&lt;div&gt;Ready&lt;/div&gt;&lt;div&gt;Signal&lt;/div&gt;" style="edgeLabel;html=1;align=center;verticalAlign=middle;resizable=0;points=[];" parent="tskBs5ETs7ypViL5f1gM-14" vertex="1" connectable="0">
          <mxGeometry x="-0.0226" relative="1" as="geometry">
            <mxPoint as="offset" />
          </mxGeometry>
        </mxCell>
        <mxCell id="tskBs5ETs7ypViL5f1gM-16" value="" style="endArrow=classic;html=1;rounded=0;exitX=1.006;exitY=0.639;exitDx=0;exitDy=0;exitPerimeter=0;entryX=0;entryY=0.75;entryDx=0;entryDy=0;strokeWidth=2;" parent="1" source="tskBs5ETs7ypViL5f1gM-2" target="tskBs5ETs7ypViL5f1gM-7" edge="1">
          <mxGeometry width="50" height="50" relative="1" as="geometry">
            <mxPoint x="670" y="390" as="sourcePoint" />
            <mxPoint x="720" y="340" as="targetPoint" />
            <Array as="points">
              <mxPoint x="640" y="542" />
              <mxPoint x="640" y="245" />
            </Array>
          </mxGeometry>
        </mxCell>
        <mxCell id="tskBs5ETs7ypViL5f1gM-18" value="ToF&lt;div&gt;Data&lt;/div&gt;" style="edgeLabel;html=1;align=center;verticalAlign=middle;resizable=0;points=[];" parent="tskBs5ETs7ypViL5f1gM-16" vertex="1" connectable="0">
          <mxGeometry x="-0.2266" y="2" relative="1" as="geometry">
            <mxPoint as="offset" />
          </mxGeometry>
        </mxCell>
        <mxCell id="tskBs5ETs7ypViL5f1gM-21" value="" style="endArrow=classic;html=1;rounded=0;entryX=0.92;entryY=0.583;entryDx=0;entryDy=0;exitX=0.75;exitY=0;exitDx=0;exitDy=0;entryPerimeter=0;" parent="1" source="tskBs5ETs7ypViL5f1gM-4" target="tskBs5ETs7ypViL5f1gM-52" edge="1">
          <mxGeometry width="50" height="50" relative="1" as="geometry">
            <mxPoint x="377" y="350" as="sourcePoint" />
            <mxPoint x="553.75" y="200" as="targetPoint" />
            <Array as="points">
              <mxPoint x="320" y="250" />
              <mxPoint x="560" y="250" />
            </Array>
          </mxGeometry>
        </mxCell>
        <mxCell id="tskBs5ETs7ypViL5f1gM-22" value="Satellite&lt;div&gt;Nr.&lt;/div&gt;" style="edgeLabel;html=1;align=center;verticalAlign=middle;resizable=0;points=[];" parent="tskBs5ETs7ypViL5f1gM-21" vertex="1" connectable="0">
          <mxGeometry x="0.115" relative="1" as="geometry">
            <mxPoint as="offset" />
          </mxGeometry>
        </mxCell>
        <mxCell id="tskBs5ETs7ypViL5f1gM-27" value="" style="endArrow=classic;html=1;rounded=0;strokeWidth=3;" parent="1" edge="1">
          <mxGeometry width="50" height="50" relative="1" as="geometry">
            <mxPoint x="800" y="261" as="sourcePoint" />
            <mxPoint x="800" y="340" as="targetPoint" />
          </mxGeometry>
        </mxCell>
        <mxCell id="tskBs5ETs7ypViL5f1gM-32" value="Beacon pos.&lt;div&gt;[x,y,z]&lt;/div&gt;" style="edgeLabel;html=1;align=center;verticalAlign=middle;resizable=0;points=[];" parent="tskBs5ETs7ypViL5f1gM-27" vertex="1" connectable="0">
          <mxGeometry x="-0.4231" relative="1" as="geometry">
            <mxPoint x="-39" y="16" as="offset" />
          </mxGeometry>
        </mxCell>
        <mxCell id="tskBs5ETs7ypViL5f1gM-28" value="" style="endArrow=classic;html=1;rounded=0;entryX=0.178;entryY=1.025;entryDx=0;entryDy=0;exitX=0.175;exitY=-0.017;exitDx=0;exitDy=0;strokeWidth=3;entryPerimeter=0;exitPerimeter=0;" parent="1" source="tskBs5ETs7ypViL5f1gM-8" target="tskBs5ETs7ypViL5f1gM-7" edge="1">
          <mxGeometry width="50" height="50" relative="1" as="geometry">
            <mxPoint x="610" y="320" as="sourcePoint" />
            <mxPoint x="660" y="270" as="targetPoint" />
          </mxGeometry>
        </mxCell>
        <mxCell id="tskBs5ETs7ypViL5f1gM-30" value="" style="endArrow=none;html=1;rounded=0;" parent="1" edge="1">
          <mxGeometry width="50" height="50" relative="1" as="geometry">
            <mxPoint x="710" y="310" as="sourcePoint" />
            <mxPoint x="730" y="300" as="targetPoint" />
          </mxGeometry>
        </mxCell>
        <mxCell id="tskBs5ETs7ypViL5f1gM-31" value="" style="endArrow=none;html=1;rounded=0;" parent="1" edge="1">
          <mxGeometry width="50" height="50" relative="1" as="geometry">
            <mxPoint x="790" y="310" as="sourcePoint" />
            <mxPoint x="810" y="300" as="targetPoint" />
          </mxGeometry>
        </mxCell>
        <mxCell id="tskBs5ETs7ypViL5f1gM-37" value="" style="endArrow=none;html=1;rounded=0;" parent="1" edge="1">
          <mxGeometry width="50" height="50" relative="1" as="geometry">
            <mxPoint x="750" y="480" as="sourcePoint" />
            <mxPoint x="770" y="470" as="targetPoint" />
          </mxGeometry>
        </mxCell>
        <mxCell id="tskBs5ETs7ypViL5f1gM-41" value="" style="endArrow=none;html=1;rounded=0;" parent="1" edge="1">
          <mxGeometry width="50" height="50" relative="1" as="geometry">
            <mxPoint x="437" y="180" as="sourcePoint" />
            <mxPoint x="454" y="160" as="targetPoint" />
          </mxGeometry>
        </mxCell>
        <mxCell id="tskBs5ETs7ypViL5f1gM-44" value="" style="endArrow=classic;html=1;rounded=0;exitX=0.5;exitY=1;exitDx=0;exitDy=0;entryX=0.296;entryY=0.006;entryDx=0;entryDy=0;entryPerimeter=0;strokeWidth=3;" parent="1" source="tskBs5ETs7ypViL5f1gM-3" target="tskBs5ETs7ypViL5f1gM-2" edge="1">
          <mxGeometry width="50" height="50" relative="1" as="geometry">
            <mxPoint x="450" y="440" as="sourcePoint" />
            <mxPoint x="500" y="390" as="targetPoint" />
          </mxGeometry>
        </mxCell>
        <mxCell id="tskBs5ETs7ypViL5f1gM-46" value="" style="endArrow=classic;startArrow=classic;html=1;rounded=0;exitX=1;exitY=0.5;exitDx=0;exitDy=0;strokeWidth=2;" parent="1" source="tskBs5ETs7ypViL5f1gM-9" edge="1">
          <mxGeometry width="50" height="50" relative="1" as="geometry">
            <mxPoint x="850" y="510" as="sourcePoint" />
            <mxPoint x="920" y="534" as="targetPoint" />
          </mxGeometry>
        </mxCell>
        <mxCell id="tskBs5ETs7ypViL5f1gM-47" value="SPI" style="edgeLabel;html=1;align=center;verticalAlign=middle;resizable=0;points=[];" parent="tskBs5ETs7ypViL5f1gM-46" vertex="1" connectable="0">
          <mxGeometry x="0.4751" y="-1" relative="1" as="geometry">
            <mxPoint x="-33" y="-1" as="offset" />
          </mxGeometry>
        </mxCell>
        <mxCell id="tskBs5ETs7ypViL5f1gM-48" value="" style="endArrow=none;html=1;rounded=0;" parent="1" edge="1">
          <mxGeometry width="50" height="50" relative="1" as="geometry">
            <mxPoint x="630" y="389" as="sourcePoint" />
            <mxPoint x="650" y="379" as="targetPoint" />
          </mxGeometry>
        </mxCell>
        <mxCell id="tskBs5ETs7ypViL5f1gM-49" value="" style="endArrow=none;html=1;rounded=0;" parent="1" edge="1">
          <mxGeometry width="50" height="50" relative="1" as="geometry">
            <mxPoint x="472" y="480" as="sourcePoint" />
            <mxPoint x="492" y="470" as="targetPoint" />
          </mxGeometry>
        </mxCell>
        <mxCell id="tskBs5ETs7ypViL5f1gM-50" value="" style="endArrow=none;html=1;rounded=0;" parent="1" edge="1">
          <mxGeometry width="50" height="50" relative="1" as="geometry">
            <mxPoint x="630" y="180" as="sourcePoint" />
            <mxPoint x="647" y="160" as="targetPoint" />
          </mxGeometry>
        </mxCell>
        <mxCell id="tskBs5ETs7ypViL5f1gM-51" value="" style="endArrow=none;html=1;rounded=0;" parent="1" edge="1">
          <mxGeometry width="50" height="50" relative="1" as="geometry">
            <mxPoint x="870" y="544" as="sourcePoint" />
            <mxPoint x="887" y="524" as="targetPoint" />
          </mxGeometry>
        </mxCell>
        <mxCell id="tskBs5ETs7ypViL5f1gM-52" value="Satellite&lt;div&gt;Selector&lt;/div&gt;" style="shape=trapezoid;perimeter=trapezoidPerimeter;whiteSpace=wrap;html=1;fixedSize=1;rotation=90;size=20;" parent="1" vertex="1">
          <mxGeometry x="510" y="150" width="107.5" height="45" as="geometry" />
        </mxCell>
        <mxCell id="tskBs5ETs7ypViL5f1gM-53" value="" style="swimlane;startSize=0;dashed=1;" parent="1" vertex="1">
          <mxGeometry x="210" y="90" width="640" height="490" as="geometry">
            <mxRectangle x="210" y="90" width="50" height="40" as="alternateBounds" />
          </mxGeometry>
        </mxCell>
        <mxCell id="tskBs5ETs7ypViL5f1gM-54" value="&lt;font size=&quot;1&quot; style=&quot;&quot;&gt;&lt;b style=&quot;font-size: 16px;&quot;&gt;FPGA&lt;/b&gt;&lt;/font&gt;&lt;div&gt;&lt;font size=&quot;1&quot; style=&quot;&quot;&gt;&lt;b style=&quot;font-size: 16px;&quot;&gt;Nexys Video&lt;/b&gt;&lt;/font&gt;&lt;/div&gt;" style="text;html=1;align=center;verticalAlign=middle;resizable=0;points=[];autosize=1;strokeColor=none;fillColor=none;" parent="tskBs5ETs7ypViL5f1gM-53" vertex="1">
          <mxGeometry x="5" width="120" height="50" as="geometry" />
        </mxCell>
        <mxCell id="tskBs5ETs7ypViL5f1gM-57" value="&lt;font style=&quot;font-size: 10px;&quot;&gt;12b&lt;/font&gt;" style="text;html=1;align=center;verticalAlign=middle;resizable=0;points=[];autosize=1;strokeColor=none;fillColor=none;" parent="tskBs5ETs7ypViL5f1gM-53" vertex="1">
          <mxGeometry x="430" y="269.42" width="40" height="30" as="geometry" />
        </mxCell>
        <mxCell id="tskBs5ETs7ypViL5f1gM-59" value="&lt;font style=&quot;font-size: 10px;&quot;&gt;3x22b&lt;/font&gt;" style="text;html=1;align=center;verticalAlign=middle;resizable=0;points=[];autosize=1;strokeColor=none;fillColor=none;" parent="tskBs5ETs7ypViL5f1gM-53" vertex="1">
          <mxGeometry x="590" y="190" width="50" height="30" as="geometry" />
        </mxCell>
        <mxCell id="tskBs5ETs7ypViL5f1gM-60" value="&lt;font style=&quot;font-size: 10px;&quot;&gt;3x22b&lt;/font&gt;" style="text;html=1;align=center;verticalAlign=middle;resizable=0;points=[];autosize=1;strokeColor=none;fillColor=none;" parent="tskBs5ETs7ypViL5f1gM-53" vertex="1">
          <mxGeometry x="460" y="210" width="50" height="30" as="geometry" />
        </mxCell>
        <mxCell id="tskBs5ETs7ypViL5f1gM-61" value="&lt;font style=&quot;font-size: 10px;&quot;&gt;3x22b&lt;/font&gt;" style="text;html=1;align=center;verticalAlign=middle;resizable=0;points=[];autosize=1;strokeColor=none;fillColor=none;" parent="tskBs5ETs7ypViL5f1gM-53" vertex="1">
          <mxGeometry x="220" y="48" width="50" height="30" as="geometry" />
        </mxCell>
        <mxCell id="tskBs5ETs7ypViL5f1gM-62" value="&lt;font style=&quot;font-size: 10px;&quot;&gt;3x22b&lt;/font&gt;" style="text;html=1;align=center;verticalAlign=middle;resizable=0;points=[];autosize=1;strokeColor=none;fillColor=none;" parent="tskBs5ETs7ypViL5f1gM-53" vertex="1">
          <mxGeometry x="550" y="360" width="50" height="30" as="geometry" />
        </mxCell>
        <mxCell id="tskBs5ETs7ypViL5f1gM-63" value="&lt;font style=&quot;font-size: 10px;&quot;&gt;500x12b&lt;/font&gt;" style="text;html=1;align=center;verticalAlign=middle;resizable=0;points=[];autosize=1;strokeColor=none;fillColor=none;" parent="tskBs5ETs7ypViL5f1gM-53" vertex="1">
          <mxGeometry x="273" y="365" width="60" height="30" as="geometry" />
        </mxCell>
        <mxCell id="tskBs5ETs7ypViL5f1gM-65" value="" style="endArrow=none;html=1;rounded=0;" parent="tskBs5ETs7ypViL5f1gM-53" edge="1">
          <mxGeometry width="50" height="50" relative="1" as="geometry">
            <mxPoint x="186" y="455" as="sourcePoint" />
            <mxPoint x="203" y="435" as="targetPoint" />
          </mxGeometry>
        </mxCell>
        <mxCell id="tskBs5ETs7ypViL5f1gM-66" value="&lt;font style=&quot;font-size: 10px;&quot;&gt;12b&lt;/font&gt;" style="text;html=1;align=center;verticalAlign=middle;resizable=0;points=[];autosize=1;strokeColor=none;fillColor=none;" parent="tskBs5ETs7ypViL5f1gM-53" vertex="1">
          <mxGeometry x="184" y="412" width="40" height="30" as="geometry" />
        </mxCell>
        <mxCell id="tskBs5ETs7ypViL5f1gM-55" value="" style="endArrow=classic;html=1;rounded=0;entryX=0;entryY=0.5;entryDx=0;entryDy=0;strokeWidth=1;" parent="1" edge="1">
          <mxGeometry width="50" height="50" relative="1" as="geometry">
            <mxPoint x="140" y="534" as="sourcePoint" />
            <mxPoint x="230" y="534" as="targetPoint" />
          </mxGeometry>
        </mxCell>
        <mxCell id="tskBs5ETs7ypViL5f1gM-56" value="Analog&lt;div&gt;IN&lt;/div&gt;" style="edgeLabel;html=1;align=center;verticalAlign=middle;resizable=0;points=[];" parent="tskBs5ETs7ypViL5f1gM-55" vertex="1" connectable="0">
          <mxGeometry x="-0.0269" relative="1" as="geometry">
            <mxPoint as="offset" />
          </mxGeometry>
        </mxCell>
        <mxCell id="tskBs5ETs7ypViL5f1gM-58" value="&lt;font style=&quot;font-size: 10px;&quot;&gt;3x22b&lt;/font&gt;" style="text;html=1;align=center;verticalAlign=middle;resizable=0;points=[];autosize=1;strokeColor=none;fillColor=none;" parent="1" vertex="1">
          <mxGeometry x="625" y="138" width="50" height="30" as="geometry" />
        </mxCell>
        <mxCell id="tskBs5ETs7ypViL5f1gM-67" value="" style="endArrow=classic;html=1;rounded=0;entryX=0;entryY=0.5;entryDx=0;entryDy=0;" parent="1" target="tskBs5ETs7ypViL5f1gM-4" edge="1">
          <mxGeometry width="50" height="50" relative="1" as="geometry">
            <mxPoint x="140" y="384" as="sourcePoint" />
            <mxPoint x="190" y="364" as="targetPoint" />
          </mxGeometry>
        </mxCell>
        <mxCell id="tskBs5ETs7ypViL5f1gM-69" value="ASK" style="edgeLabel;html=1;align=center;verticalAlign=middle;resizable=0;points=[];" parent="tskBs5ETs7ypViL5f1gM-67" vertex="1" connectable="0">
          <mxGeometry x="-0.1694" y="-1" relative="1" as="geometry">
            <mxPoint as="offset" />
          </mxGeometry>
        </mxCell>
        <mxCell id="tskBs5ETs7ypViL5f1gM-71" value="&lt;font style=&quot;font-size: 10px;&quot;&gt;3b&lt;/font&gt;" style="text;html=1;align=center;verticalAlign=middle;resizable=0;points=[];autosize=1;strokeColor=none;fillColor=none;" parent="1" vertex="1">
          <mxGeometry x="875" y="502" width="30" height="30" as="geometry" />
        </mxCell>
      </root>
    </mxGraphModel>
  </diagram>
</mxfile>
